<svg width="67" height="14" viewBox="0 0 67 14" fill="none" xmlns="http://www.w3.org/2000/svg">
<path d="M31.9795 4.02163H33.1952V11.4869H31.9795V4.02163ZM31.9795 2.33594H33.1952V3.51325H31.9795V2.33594Z" fill="black"/>
<path d="M34.4919 4.01983H35.6399V5.07673C36.1262 4.16699 36.8826 3.76562 38.0038 3.76562C39.125 3.76562 40.1109 4.34092 40.3945 5.27741C40.5162 5.59851 40.5432 5.99985 40.5432 6.73568V11.4851H39.3275V6.68217C39.3275 5.47809 38.8141 4.87607 37.7202 4.87607C36.626 4.87607 35.6939 5.79917 35.6939 7.2173L35.6669 11.4851H34.4648L34.4919 4.01983Z" fill="black"/>
<path d="M41.583 2.05943C41.583 0.801842 42.1638 0.226562 43.4335 0.226562H44.8924V1.37712C43.5686 1.37712 42.7987 1.22996 42.7987 2.56781V4.02609H44.5545V5.02947H42.7987V11.4913H41.583V2.05943Z" fill="black"/>
<path d="M45.5273 0.289062H46.743V11.4869H45.5273V0.289062Z" fill="black"/>
<path d="M64.2752 4.02114V1.86719H65.4907V4.02114H66.9225V5.02454H65.4907V9.60003C65.4907 10.3091 65.7205 10.5365 66.4093 10.5098L66.8685 10.483V11.5131L66.0581 11.5667C64.8154 11.5667 64.248 11.1386 64.248 10.1619V4.99779H63.0596V4.02114H64.2752Z" fill="black"/>
<path d="M3.76898 4.53294C3.67746 4.49457 3.58656 4.45915 3.49641 4.42678C3.44589 4.40862 3.39532 4.39136 3.34473 4.375C3.34703 4.60532 3.38519 4.88873 3.47961 5.23093C3.7574 5.34776 4.04588 5.49776 4.33903 5.67941C4.11564 5.2967 3.92468 4.91229 3.76898 4.53294Z" fill="black"/>
<path d="M7.67871 9.29688C7.88659 9.6868 8.05196 10.0704 8.17207 10.4364C8.53603 10.5644 8.80765 10.6021 9.00764 10.5936C8.98605 10.5095 8.96239 10.4252 8.9368 10.3409C8.89743 10.2113 8.85308 10.0801 8.80389 9.94768C8.43017 9.77185 8.05275 9.55332 7.67871 9.29688Z" fill="black"/>
<path d="M0.698341 4.77421C0.911357 4.54183 1.16702 4.38391 1.45079 4.28906C1.4475 4.55314 1.46978 4.82089 1.51179 5.08612C1.41406 5.13954 1.32946 5.20576 1.25839 5.2833C0.892456 5.6825 0.80127 6.4569 1.12739 7.51112C1.4452 8.5385 2.13032 9.71855 3.11333 10.7909C4.09733 11.8644 5.17392 12.6054 6.10166 12.9438C7.04964 13.2896 7.71621 13.1813 8.0656 12.7908L8.06711 12.7892L8.06865 12.7875C8.16124 12.6865 8.23655 12.5616 8.29226 12.4145C8.54973 12.4607 8.81114 12.484 9.0693 12.4768C8.98541 12.785 8.84258 13.0626 8.63024 13.2949C7.96547 14.036 6.88923 14.0353 5.84085 13.6529C4.77144 13.2628 3.59736 12.439 2.55328 11.3C1.50822 10.1599 0.758858 8.88476 0.402704 7.73343C0.0548598 6.60897 0.0502379 5.48123 0.698341 4.77421Z" fill="black"/>
<path d="M3.28078 2.28906C3.0071 2.38352 2.75836 2.54017 2.55088 2.76653C1.90879 3.48405 1.90135 4.61448 2.24373 5.74549C2.59352 6.90095 3.33696 8.17689 4.38262 9.31761C5.4267 10.4566 6.60078 11.2804 7.67019 11.6705C8.71857 12.0529 9.79483 12.0536 10.4596 11.3125C10.6804 11.0709 10.8261 10.7802 10.9085 10.4572C10.6517 10.4632 10.3918 10.4392 10.1359 10.3925C10.079 10.557 9.99875 10.6952 9.89799 10.8051L9.89645 10.8068L9.89494 10.8085C9.54555 11.1989 8.87898 11.3072 7.931 10.9614C7.00326 10.623 5.92667 9.88196 4.94267 8.80853C3.96027 7.73683 3.28158 6.55753 2.96975 5.52755C2.65098 4.47453 2.74331 3.68836 3.11399 3.27228C3.17982 3.20079 3.25708 3.13915 3.34548 3.08855C3.30198 2.82277 3.27837 2.55412 3.28078 2.28906Z" fill="black"/>
<path d="M9.98473 8.39981C9.65158 7.41566 8.99502 6.3088 8.06823 5.29778C7.16797 4.31566 6.18979 3.61137 5.31861 3.23687C5.21969 2.88987 5.17947 2.60478 5.17578 2.375C5.23116 2.3932 5.2865 2.41249 5.34177 2.43284C6.41032 2.82622 7.58407 3.64959 8.62828 4.78869C9.67392 5.92938 10.4173 7.20522 10.7671 8.35713C10.789 8.42919 10.8094 8.50127 10.8284 8.57324C10.624 8.57637 10.3493 8.53253 9.98473 8.39981Z" fill="black"/>
<path fill-rule="evenodd" clip-rule="evenodd" d="M7.18185 0.407081C8.25724 0.793315 9.43819 1.61009 10.4835 2.75048C11.5292 3.89115 12.2725 5.16701 12.6223 6.3189C12.9639 7.44374 12.9605 8.56892 12.3153 9.27459C11.6505 10.0156 10.5743 10.0149 9.52591 9.63255C8.45677 9.24256 7.28301 8.41905 6.23913 7.28053C5.18106 6.13996 4.43132 4.86421 4.07822 3.71217C3.733 2.58589 3.73647 1.45964 4.38341 0.753899C5.04818 0.0286924 6.12831 0.0286944 7.18185 0.407081ZM6.92457 1.1174C5.9686 0.77405 5.29272 0.881975 4.94346 1.26298C4.57637 1.66344 4.4809 2.43933 4.80346 3.49173C5.11806 4.51811 5.80253 5.69728 6.79686 6.76891L6.79839 6.7706C7.78239 7.84403 8.85898 8.58511 9.78673 8.92351C10.7347 9.26929 11.4013 9.16097 11.7507 8.77052L11.7522 8.76884L11.7537 8.76717C12.121 8.36651 12.2163 7.59045 11.8965 6.53748C11.5847 5.51068 10.9059 4.3313 9.92349 3.25955C8.94079 2.18752 7.85871 1.4529 6.92457 1.1174Z" fill="black"/>
<path fill-rule="evenodd" clip-rule="evenodd" d="M26.8649 3.7344C26.0661 3.7344 25.2852 3.96901 24.6211 4.40856C23.9568 4.8481 23.4393 5.47285 23.1335 6.2038C22.8279 6.93473 22.748 7.73903 22.9037 8.515C23.0595 9.29098 23.4441 10.0037 24.0091 10.5632C24.5739 11.1226 25.2935 11.5036 26.0769 11.6579C26.8602 11.8123 27.6724 11.7331 28.4102 11.4303C29.1483 11.1275 29.779 10.6148 30.2228 9.957C30.6667 9.29916 30.9035 8.52577 30.9035 7.73459C30.9053 7.20878 30.802 6.68783 30.5997 6.2017C30.3974 5.71557 30.1 5.27389 29.7245 4.90208C29.3491 4.53028 28.9032 4.23571 28.4124 4.03529C27.9217 3.83489 27.3956 3.73263 26.8649 3.7344ZM26.8649 10.5709C26.299 10.5682 25.7467 10.3996 25.2775 10.0864C24.8085 9.77312 24.4436 9.32924 24.2288 8.81075C24.0142 8.29227 23.9595 7.72241 24.0715 7.17313C24.1835 6.62382 24.4572 6.11969 24.8581 5.72439C25.2593 5.32906 25.7696 5.06026 26.3247 4.95189C26.8798 4.84355 27.4547 4.90049 27.9773 5.11554C28.4997 5.33059 28.946 5.69414 29.2602 6.16025C29.5743 6.62638 29.7419 7.17422 29.7419 7.73459C29.7419 8.10819 29.6674 8.4781 29.5227 8.82309C29.3779 9.16808 29.1657 9.48133 28.8984 9.74488C28.631 10.0084 28.3138 10.2171 27.9648 10.3588C27.6157 10.5006 27.242 10.5726 26.8649 10.5709Z" fill="black"/>
<path fill-rule="evenodd" clip-rule="evenodd" d="M51.4564 3.71487C50.7229 3.7141 50.0032 3.91327 49.3763 4.29055C48.7493 4.66781 48.2393 5.20864 47.9019 5.85385C47.5647 6.49905 47.4131 7.22373 47.4636 7.94858C47.5144 8.67343 47.7654 9.37049 48.1894 9.96346C48.6134 10.5564 49.1937 11.0224 49.8673 11.3105C50.5408 11.5986 51.2813 11.6975 52.0077 11.5966C52.7342 11.4957 53.4185 11.1987 53.9859 10.7383C54.5535 10.2778 54.9821 9.67163 55.2251 8.98602H53.9688C53.6896 9.51323 53.2482 9.93889 52.7089 10.2017C52.1696 10.4644 51.5598 10.5507 50.9678 10.448C50.3756 10.3453 49.8319 10.0589 49.4147 9.63026C48.9976 9.20158 48.7287 8.65273 48.647 8.0629H55.4276C55.4496 7.93479 55.4586 7.80481 55.4546 7.67492C55.4564 7.15438 55.3542 6.63864 55.1539 6.15739C54.9535 5.67614 54.6592 5.23888 54.2875 4.87079C53.9158 4.50272 53.4745 4.21108 52.9886 4.01269C52.5027 3.81431 51.982 3.71309 51.4564 3.71487ZM48.7144 6.91236C48.879 6.31887 49.2357 5.79533 49.73 5.42221C50.224 5.04907 50.8283 4.84699 51.4498 4.84699C52.071 4.84699 52.6753 5.04907 53.1694 5.42221C53.6636 5.79533 54.0204 6.31887 54.1849 6.91236H48.7144Z" fill="black"/>
<path fill-rule="evenodd" clip-rule="evenodd" d="M62.5594 10.6209C61.8384 11.269 60.8989 11.6269 59.9253 11.6243C59.2865 11.6287 58.656 11.4804 58.0875 11.1919C57.5188 10.9034 57.0289 10.4833 56.6592 9.96722C56.2895 9.45115 56.0509 8.85435 55.9639 8.2275C55.8767 7.60063 55.9435 6.96221 56.1588 6.3664C56.3738 5.77059 56.731 5.235 57.1998 4.80507C57.6686 4.37514 58.2351 4.0636 58.8515 3.89684C59.4677 3.73009 60.1155 3.71307 60.7398 3.84723C61.3641 3.98139 61.9467 4.26275 62.4377 4.66746L61.7488 5.57722C61.3349 5.22818 60.8279 5.00499 60.2888 4.93444C59.75 4.86389 59.2019 4.94901 58.7105 5.17953C58.2193 5.41007 57.8054 5.77621 57.5192 6.23397C57.233 6.69175 57.0862 7.22167 57.0966 7.76006C57.1071 8.29844 57.274 8.82239 57.5779 9.26897C57.8817 9.71553 58.3094 10.0657 58.8091 10.2774C59.3091 10.4891 59.86 10.5534 60.3958 10.4624C60.9318 10.3715 61.4298 10.1292 61.8298 9.7647L62.5594 10.6209Z" fill="black"/>
<path fill-rule="evenodd" clip-rule="evenodd" d="M22.4881 10.6468C22.0097 11.0757 21.4327 11.3826 20.8074 11.5409C20.1821 11.6993 19.5273 11.7043 18.8996 11.5555C18.2719 11.4068 17.6903 11.1087 17.2051 10.6872C16.7199 10.2657 16.3457 9.7334 16.115 9.13641C15.8843 8.53939 15.8039 7.8957 15.8809 7.26102C15.9579 6.62634 16.1899 6.01981 16.5568 5.49393C16.9238 4.96806 17.4146 4.53868 17.9868 4.24299C18.559 3.94728 19.1953 3.79418 19.8407 3.79692C20.7587 3.79274 21.6486 4.11023 22.353 4.69329L21.6777 5.60303C21.1631 5.17428 20.5131 4.93759 19.8407 4.93411C19.3814 4.93345 18.9289 5.04381 18.5224 5.25558C18.1159 5.46738 17.7678 5.7742 17.5081 6.14942C17.2484 6.52466 17.0851 6.95698 17.0323 7.40887C16.9796 7.86077 17.0389 8.31859 17.2052 8.74263C17.3715 9.16668 17.6397 9.54414 17.9866 9.84225C18.3335 10.1404 18.7487 10.3501 19.196 10.4534C19.6433 10.5566 20.1093 10.5502 20.5535 10.4347C20.9977 10.3192 21.4068 10.0981 21.7452 9.79053L22.4881 10.6468Z" fill="black"/>
</svg>
