<svg id="Layer_1" data-name="Layer 1" xmlns="http://www.w3.org/2000/svg" viewBox="0 0 95 17"><defs><style>.cls-1{fill:#fff;}.cls-2{fill:none;stroke:#fff;stroke-width:0.5px;}</style></defs><title>dApploy Beta Header Logo</title><path class="cls-1" d="M60.06,31.87V30.05h1.52a3.23,3.23,0,0,1,.46,0,1.25,1.25,0,0,1,.4.12.7.7,0,0,1,.26.28,1,1,0,0,1,.1.48.82.82,0,0,1-.29.68,1.51,1.51,0,0,1-.93.23Zm-.76-2.46v5.71h2.76A1.88,1.88,0,0,0,62.8,35a1.83,1.83,0,0,0,.55-.37,1.48,1.48,0,0,0,.33-.53,1.62,1.62,0,0,0,.12-.61,1.45,1.45,0,0,0-.28-.89,1.29,1.29,0,0,0-.81-.48v0a1.28,1.28,0,0,0,.62-.49,1.36,1.36,0,0,0,.23-.79,1.3,1.3,0,0,0-.2-.73,1.5,1.5,0,0,0-.48-.46,1.11,1.11,0,0,0-.31-.12,2.16,2.16,0,0,0-.38-.06l-.43,0H59.3Zm.76,5.07v-2H61.8a1.75,1.75,0,0,1,.46.05.84.84,0,0,1,.39.15.71.71,0,0,1,.28.29.89.89,0,0,1,.11.46,1,1,0,0,1-.29.75,1.1,1.1,0,0,1-.79.27Zm7.48-1.82H65.16a1.64,1.64,0,0,1,.1-.45,1.18,1.18,0,0,1,.24-.37,1.23,1.23,0,0,1,.36-.25,1.12,1.12,0,0,1,.48-.1,1,1,0,0,1,.47.1,1.05,1.05,0,0,1,.37.25,1,1,0,0,1,.24.36A1.25,1.25,0,0,1,67.54,32.66Zm.65,1.15h-.67a1,1,0,0,1-.37.61,1.16,1.16,0,0,1-.7.2,1.51,1.51,0,0,1-.59-.11,1.24,1.24,0,0,1-.4-.3,1.22,1.22,0,0,1-.24-.43,2.24,2.24,0,0,1-.06-.52h3.1a3.12,3.12,0,0,0-.08-.79,2.07,2.07,0,0,0-.3-.77,1.69,1.69,0,0,0-.58-.58,1.72,1.72,0,0,0-.92-.23,1.85,1.85,0,0,0-.78.16,2.1,2.1,0,0,0-.62.45,2.18,2.18,0,0,0-.4.68,2.63,2.63,0,0,0-.14.86,3.45,3.45,0,0,0,.14.88,1.94,1.94,0,0,0,.37.68,1.7,1.7,0,0,0,.61.45,2.1,2.1,0,0,0,.86.16,1.91,1.91,0,0,0,1.17-.35A1.65,1.65,0,0,0,68.19,33.81ZM69.91,31V29.75h-.68V31h-.71v.6h.71v2.63a1.46,1.46,0,0,0,0,.46.6.6,0,0,0,.17.28.83.83,0,0,0,.3.13,3,3,0,0,0,.46,0h.52v-.6h-.58a.52.52,0,0,1-.15-.06.23.23,0,0,1-.08-.11,1,1,0,0,1,0-.19V31.59h.82V31Zm5.24,4.12a1,1,0,0,1-.49.1.61.61,0,0,1-.42-.14.69.69,0,0,1-.16-.49,1.63,1.63,0,0,1-.65.49,2.32,2.32,0,0,1-.8.14,2.35,2.35,0,0,1-.54-.06,1.42,1.42,0,0,1-.43-.2,1.14,1.14,0,0,1-.3-.35,1.44,1.44,0,0,1-.1-.54,1.22,1.22,0,0,1,.12-.58,1,1,0,0,1,.31-.36,1.85,1.85,0,0,1,.45-.21,4.37,4.37,0,0,1,.52-.12,3.59,3.59,0,0,1,.53-.08,4.12,4.12,0,0,0,.45-.08.93.93,0,0,0,.3-.15.37.37,0,0,0,.11-.3.64.64,0,0,0-.09-.36.53.53,0,0,0-.21-.21.75.75,0,0,0-.3-.09,1.66,1.66,0,0,0-.32,0,1.42,1.42,0,0,0-.72.17.7.7,0,0,0-.31.62h-.68a1.38,1.38,0,0,1,.16-.65A1.22,1.22,0,0,1,72,31.2a1.7,1.7,0,0,1,.55-.24,3.51,3.51,0,0,1,.66-.07,3.31,3.31,0,0,1,.55,0,1.4,1.4,0,0,1,.51.17.9.9,0,0,1,.36.34,1.15,1.15,0,0,1,.13.59v2.13a1.5,1.5,0,0,0,0,.35c0,.07.08.11.19.11a.59.59,0,0,0,.21,0ZM74,33a.84.84,0,0,1-.33.14l-.44.07-.46.07a1.64,1.64,0,0,0-.41.11.72.72,0,0,0-.31.23A.68.68,0,0,0,72,34a.65.65,0,0,0,.06.29.62.62,0,0,0,.18.18.76.76,0,0,0,.26.11,1.39,1.39,0,0,0,.3,0,1.68,1.68,0,0,0,.58-.09,1.22,1.22,0,0,0,.39-.23A1.15,1.15,0,0,0,74,34a.81.81,0,0,0,.07-.32Z" transform="translate(15.32 -23.62)"/><rect class="cls-2" x="70.25" y="3.25" width="24.5" height="10.5" rx="3.75"/><path class="cls-1" d="M-6.15,36.83H-8.09V35.54h0a2.58,2.58,0,0,1-1.2,1.2,4.13,4.13,0,0,1-1.67.35,4.45,4.45,0,0,1-1.92-.39,4,4,0,0,1-1.34-1.09A4.69,4.69,0,0,1-15.06,34a7.71,7.71,0,0,1-.26-2A6.5,6.5,0,0,1-15,29.75a4.53,4.53,0,0,1,.89-1.56,3.61,3.61,0,0,1,1.29-.89A4.11,4.11,0,0,1-11.31,27a4.46,4.46,0,0,1,.88.09,3.71,3.71,0,0,1,.86.26,3,3,0,0,1,.75.48,2.36,2.36,0,0,1,.59.67h0V23.62h2Zm-7.13-4.68a5.32,5.32,0,0,0,.14,1.2,3.53,3.53,0,0,0,.47,1.06,2.46,2.46,0,0,0,.8.74,2.36,2.36,0,0,0,1.15.28,2.21,2.21,0,0,0,1.17-.3,2.39,2.39,0,0,0,.8-.78,3.32,3.32,0,0,0,.47-1.07A4.74,4.74,0,0,0-8.12,32a3.89,3.89,0,0,0-.7-2.48,2.21,2.21,0,0,0-1.86-.89A2.24,2.24,0,0,0-11.9,29a2.65,2.65,0,0,0-.81.79,3.69,3.69,0,0,0-.45,1.11A6.56,6.56,0,0,0-13.28,32.15Z" transform="translate(15.32 -23.62)"/><path class="cls-1" d="M-.93,23.62H1.45L6.38,36.83H4l-1.2-3.49H-2.33l-1.2,3.49H-5.84Zm-.79,8H2.19L.27,25.9H.22Z" transform="translate(15.32 -23.62)"/><path class="cls-1" d="M6.65,27.27H8.58v1.29h0a2.54,2.54,0,0,1,1.2-1.18A3.75,3.75,0,0,1,11.49,27a4.09,4.09,0,0,1,1.9.41,3.62,3.62,0,0,1,1.36,1.09,4.59,4.59,0,0,1,.8,1.61,7,7,0,0,1,.27,2A6.79,6.79,0,0,1,15.57,34a4.74,4.74,0,0,1-.73,1.61,3.78,3.78,0,0,1-1.24,1.11,3.67,3.67,0,0,1-1.77.41,4.58,4.58,0,0,1-.9-.09,3.71,3.71,0,0,1-.86-.26,4,4,0,0,1-.77-.46,2.69,2.69,0,0,1-.57-.69h0v4.77h-2Zm7.13,4.79a4.84,4.84,0,0,0-.16-1.26,3.28,3.28,0,0,0-.49-1.07,2.32,2.32,0,0,0-.8-.76,2.05,2.05,0,0,0-1.11-.3,2.27,2.27,0,0,0-2,.93,4.22,4.22,0,0,0-.64,2.46,5.32,5.32,0,0,0,.16,1.35,3,3,0,0,0,.52,1.05,2.73,2.73,0,0,0,.81.71,2.33,2.33,0,0,0,1.11.26,2.2,2.2,0,0,0,1.18-.3,2.5,2.5,0,0,0,.79-.76,3.29,3.29,0,0,0,.45-1.07A5.75,5.75,0,0,0,13.78,32.06Z" transform="translate(15.32 -23.62)"/><path class="cls-1" d="M16.89,27.27h1.93v1.29h0a2.45,2.45,0,0,1,1.2-1.18A3.74,3.74,0,0,1,21.72,27a4.06,4.06,0,0,1,1.9.41A3.47,3.47,0,0,1,25,28.51a4.61,4.61,0,0,1,.81,1.61,7,7,0,0,1,.27,2A6.79,6.79,0,0,1,25.81,34a4.75,4.75,0,0,1-.74,1.61,3.65,3.65,0,0,1-1.23,1.11,3.71,3.71,0,0,1-1.78.41,4.48,4.48,0,0,1-.89-.09,3.57,3.57,0,0,1-.86-.26,3.74,3.74,0,0,1-.77-.46,3,3,0,0,1-.58-.69h0v4.77h-2ZM24,32.06a4.85,4.85,0,0,0-.17-1.26,3.07,3.07,0,0,0-.48-1.07,2.27,2.27,0,0,0-.81-.76,2.05,2.05,0,0,0-1.11-.3,2.24,2.24,0,0,0-1.95.93,4.22,4.22,0,0,0-.64,2.46A5.32,5.32,0,0,0,19,33.41a3,3,0,0,0,.52,1.05,2.58,2.58,0,0,0,.8.71,2.39,2.39,0,0,0,1.11.26,2.24,2.24,0,0,0,1.19-.3,2.46,2.46,0,0,0,.78-.76,2.9,2.9,0,0,0,.45-1.07A5.19,5.19,0,0,0,24,32.06Z" transform="translate(15.32 -23.62)"/><path class="cls-1" d="M27.12,23.62h2V36.83h-2Z" transform="translate(15.32 -23.62)"/><path class="cls-1" d="M34.92,37.09a5,5,0,0,1-2-.37,4.59,4.59,0,0,1-1.47-1,4.79,4.79,0,0,1-.91-1.59,6.33,6.33,0,0,1-.31-2,6.25,6.25,0,0,1,.31-2,4.79,4.79,0,0,1,.91-1.59,4.25,4.25,0,0,1,1.47-1,4.87,4.87,0,0,1,2-.39,4.71,4.71,0,0,1,2,.39,3.91,3.91,0,0,1,1.47,1A4.32,4.32,0,0,1,39.27,30a6,6,0,0,1,.33,2,6.06,6.06,0,0,1-.33,2,4.32,4.32,0,0,1-.91,1.59,4.19,4.19,0,0,1-1.47,1A4.88,4.88,0,0,1,34.92,37.09Zm0-1.66a2.25,2.25,0,0,0,1.18-.3,2.58,2.58,0,0,0,.83-.78,3.3,3.3,0,0,0,.46-1.07A4.74,4.74,0,0,0,37.55,32a4.65,4.65,0,0,0-.16-1.22,3,3,0,0,0-.46-1.07A2.58,2.58,0,0,0,36.1,29a2.47,2.47,0,0,0-2.36,0,2.58,2.58,0,0,0-.83.78,3.39,3.39,0,0,0-.48,1.07A5.08,5.08,0,0,0,32.29,32a5.18,5.18,0,0,0,.14,1.24,3.85,3.85,0,0,0,.48,1.07,2.58,2.58,0,0,0,.83.78A2.25,2.25,0,0,0,34.92,35.43Z" transform="translate(15.32 -23.62)"/><path class="cls-1" d="M39.56,27.27H41.8l2.41,7.14h0l2.35-7.14h2.13l-3.6,10.08-.5,1.24a4.27,4.27,0,0,1-.59,1,2.52,2.52,0,0,1-.86.73,2.89,2.89,0,0,1-1.33.27,8.41,8.41,0,0,1-1.42-.11V38.74l.49.07a1.86,1.86,0,0,0,.48.06,1.42,1.42,0,0,0,.59-.1.88.88,0,0,0,.38-.27,1.33,1.33,0,0,0,.27-.41,3.33,3.33,0,0,0,.19-.56l.24-.74Z" transform="translate(15.32 -23.62)"/></svg>