<svg id="Layer_1" data-name="Layer 1" xmlns="http://www.w3.org/2000/svg" viewBox="0 0 64.05 17"><defs><style>.cls-1{fill:#fff;}</style></defs><title>dApploy dApp Footer Logo</title><path class="cls-1" d="M-6.15,36.83H-8.09V35.54h0a2.58,2.58,0,0,1-1.2,1.2,4.13,4.13,0,0,1-1.67.35,4.45,4.45,0,0,1-1.92-.39,4,4,0,0,1-1.34-1.09A4.69,4.69,0,0,1-15.06,34a7.71,7.71,0,0,1-.26-2A6.5,6.5,0,0,1-15,29.75a4.53,4.53,0,0,1,.89-1.56,3.61,3.61,0,0,1,1.29-.89A4.11,4.11,0,0,1-11.31,27a4.46,4.46,0,0,1,.88.09,3.71,3.71,0,0,1,.86.26,3,3,0,0,1,.75.48,2.36,2.36,0,0,1,.59.67h0V23.62h2Zm-7.13-4.68a5.32,5.32,0,0,0,.14,1.2,3.53,3.53,0,0,0,.47,1.06,2.46,2.46,0,0,0,.8.74,2.36,2.36,0,0,0,1.15.28,2.21,2.21,0,0,0,1.17-.3,2.39,2.39,0,0,0,.8-.78,3.32,3.32,0,0,0,.47-1.07A4.74,4.74,0,0,0-8.12,32a3.89,3.89,0,0,0-.7-2.48,2.21,2.21,0,0,0-1.86-.89A2.24,2.24,0,0,0-11.9,29a2.65,2.65,0,0,0-.81.79,3.69,3.69,0,0,0-.45,1.11A6.56,6.56,0,0,0-13.28,32.15Z" transform="translate(15.32 -23.62)"/><path class="cls-1" d="M-.93,23.62H1.45L6.38,36.83H4l-1.2-3.49H-2.33l-1.2,3.49H-5.84Zm-.79,8H2.19L.27,25.9H.22Z" transform="translate(15.32 -23.62)"/><path class="cls-1" d="M6.65,27.27H8.58v1.29h0a2.54,2.54,0,0,1,1.2-1.18A3.75,3.75,0,0,1,11.49,27a4.09,4.09,0,0,1,1.9.41,3.62,3.62,0,0,1,1.36,1.09,4.59,4.59,0,0,1,.8,1.61,7,7,0,0,1,.27,2A6.79,6.79,0,0,1,15.57,34a4.74,4.74,0,0,1-.73,1.61,3.78,3.78,0,0,1-1.24,1.11,3.67,3.67,0,0,1-1.77.41,4.58,4.58,0,0,1-.9-.09,3.71,3.71,0,0,1-.86-.26,4,4,0,0,1-.77-.46,2.69,2.69,0,0,1-.57-.69h0v4.77h-2Zm7.13,4.79a4.84,4.84,0,0,0-.16-1.26,3.28,3.28,0,0,0-.49-1.07,2.32,2.32,0,0,0-.8-.76,2.05,2.05,0,0,0-1.11-.3,2.27,2.27,0,0,0-2,.93,4.22,4.22,0,0,0-.64,2.46,5.32,5.32,0,0,0,.16,1.35,3,3,0,0,0,.52,1.05,2.73,2.73,0,0,0,.81.71,2.33,2.33,0,0,0,1.11.26,2.2,2.2,0,0,0,1.18-.3,2.5,2.5,0,0,0,.79-.76,3.29,3.29,0,0,0,.45-1.07A5.75,5.75,0,0,0,13.78,32.06Z" transform="translate(15.32 -23.62)"/><path class="cls-1" d="M16.89,27.27h1.93v1.29h0a2.45,2.45,0,0,1,1.2-1.18A3.74,3.74,0,0,1,21.72,27a4.06,4.06,0,0,1,1.9.41A3.47,3.47,0,0,1,25,28.51a4.61,4.61,0,0,1,.81,1.61,7,7,0,0,1,.27,2A6.79,6.79,0,0,1,25.81,34a4.75,4.75,0,0,1-.74,1.61,3.65,3.65,0,0,1-1.23,1.11,3.71,3.71,0,0,1-1.78.41,4.48,4.48,0,0,1-.89-.09,3.57,3.57,0,0,1-.86-.26,3.74,3.74,0,0,1-.77-.46,3,3,0,0,1-.58-.69h0v4.77h-2ZM24,32.06a4.85,4.85,0,0,0-.17-1.26,3.07,3.07,0,0,0-.48-1.07,2.27,2.27,0,0,0-.81-.76,2.05,2.05,0,0,0-1.11-.3,2.24,2.24,0,0,0-1.95.93,4.22,4.22,0,0,0-.64,2.46A5.32,5.32,0,0,0,19,33.41a3,3,0,0,0,.52,1.05,2.58,2.58,0,0,0,.8.71,2.39,2.39,0,0,0,1.11.26,2.24,2.24,0,0,0,1.19-.3,2.46,2.46,0,0,0,.78-.76,2.9,2.9,0,0,0,.45-1.07A5.19,5.19,0,0,0,24,32.06Z" transform="translate(15.32 -23.62)"/><path class="cls-1" d="M27.12,23.62h2V36.83h-2Z" transform="translate(15.32 -23.62)"/><path class="cls-1" d="M34.92,37.09a5,5,0,0,1-2-.37,4.59,4.59,0,0,1-1.47-1,4.79,4.79,0,0,1-.91-1.59,6.33,6.33,0,0,1-.31-2,6.25,6.25,0,0,1,.31-2,4.79,4.79,0,0,1,.91-1.59,4.25,4.25,0,0,1,1.47-1,4.87,4.87,0,0,1,2-.39,4.71,4.71,0,0,1,2,.39,3.91,3.91,0,0,1,1.47,1A4.32,4.32,0,0,1,39.27,30a6,6,0,0,1,.33,2,6.06,6.06,0,0,1-.33,2,4.32,4.32,0,0,1-.91,1.59,4.19,4.19,0,0,1-1.47,1A4.88,4.88,0,0,1,34.92,37.09Zm0-1.66a2.25,2.25,0,0,0,1.18-.3,2.58,2.58,0,0,0,.83-.78,3.3,3.3,0,0,0,.46-1.07A4.74,4.74,0,0,0,37.55,32a4.65,4.65,0,0,0-.16-1.22,3,3,0,0,0-.46-1.07A2.58,2.58,0,0,0,36.1,29a2.47,2.47,0,0,0-2.36,0,2.58,2.58,0,0,0-.83.78,3.39,3.39,0,0,0-.48,1.07A5.08,5.08,0,0,0,32.29,32a5.18,5.18,0,0,0,.14,1.24,3.85,3.85,0,0,0,.48,1.07,2.58,2.58,0,0,0,.83.78A2.25,2.25,0,0,0,34.92,35.43Z" transform="translate(15.32 -23.62)"/><path class="cls-1" d="M39.56,27.27H41.8l2.41,7.14h0l2.35-7.14h2.13l-3.6,10.08-.5,1.24a4.27,4.27,0,0,1-.59,1,2.52,2.52,0,0,1-.86.73,2.89,2.89,0,0,1-1.33.27,8.41,8.41,0,0,1-1.42-.11V38.74l.49.07a1.86,1.86,0,0,0,.48.06,1.42,1.42,0,0,0,.59-.1.88.88,0,0,0,.38-.27,1.33,1.33,0,0,0,.27-.41,3.33,3.33,0,0,0,.19-.56l.24-.74Z" transform="translate(15.32 -23.62)"/></svg>