<svg id="Layer_1" data-name="Layer 1" xmlns="http://www.w3.org/2000/svg" viewBox="0 0 192.77 300"><defs><style>.cls-1{fill:#fff;}.cls-2{fill:#d6e2f6;}.cls-3{fill:#92b8fa;}.cls-4{fill:#006cff;}</style></defs><title>dApploy Logo Mark Dark mode</title><path class="cls-1" d="M194.12,389.91V368.52H172.73V347.14H151.34V218.52h21.39V197.14h21.39V175.75h85.69v21.39h21.53V89.91h42.77v300H301.34V368.52H279.81v21.39Z" transform="translate(-151.34 -89.91)"/><polygon class="cls-2" points="122.78 265.16 122.78 241.21 146.82 241.21 146.82 145.08 122.78 145.08 122.78 121.13 50.95 121.13 50.95 145.08 27.07 145.08 27.07 241.21 50.95 241.21 50.95 265.16 122.78 265.16"/><rect class="cls-3" x="50.82" y="121.18" width="24" height="48"/><rect class="cls-3" x="98.82" y="121.18" width="24" height="48"/><rect class="cls-3" x="26.82" y="145.18" width="24" height="48"/><rect class="cls-3" x="122.82" y="145.18" width="24" height="48"/><rect class="cls-4" x="74.82" y="145.18" width="24" height="24"/><rect class="cls-4" x="26.82" y="217.18" width="48" height="24"/><rect class="cls-3" x="74.82" y="217.18" width="24" height="24"/><rect class="cls-4" x="74.82" y="241.18" width="24" height="24"/><rect class="cls-4" x="50.82" y="193.18" width="24" height="24"/><rect class="cls-4" x="98.82" y="217.18" width="48" height="24"/><rect class="cls-4" x="98.82" y="193.18" width="24" height="24"/></svg>