<svg id="Layer_1" data-name="Layer 1" xmlns="http://www.w3.org/2000/svg" viewBox="0 0 170.08 170.08"><defs><style>.cls-1{fill:#fff;}</style></defs><title>Night Mode No Logo</title><circle class="cls-1" cx="85.04" cy="85.04" r="85.04"/><path d="M267.45,113.4a26.49,26.49,0,0,1,5.18-8.9,23,23,0,0,1,8.26-5.87,27.43,27.43,0,0,1,10.94-2.1,30,30,0,0,1,9.94,1.57,22.27,22.27,0,0,1,7.74,4.54,20.29,20.29,0,0,1,5.06,7.27,25.47,25.47,0,0,1,1.8,9.89,22.15,22.15,0,0,1-.87,6.46,23.12,23.12,0,0,1-2.27,5.17,27.21,27.21,0,0,1-3.2,4.31q-1.8,2-3.66,3.84t-3.67,3.54a30.88,30.88,0,0,0-3.25,3.84,18.49,18.49,0,0,0-2.33,4.42,15.74,15.74,0,0,0-.87,5.41v4.54h-9.89v-5.47a22.37,22.37,0,0,1,1.8-8.32,26.53,26.53,0,0,1,3.84-6.1,52.11,52.11,0,0,1,4.77-4.95,52.22,52.22,0,0,0,4.65-4.77,20.66,20.66,0,0,0,3.43-5.52,16.3,16.3,0,0,0,1-7.33q-.47-6.41-4.13-10t-9.94-3.6a16,16,0,0,0-7.22,1.51,15,15,0,0,0-5.06,4.07,16.45,16.45,0,0,0-3,6,29.32,29.32,0,0,0-.93,7.56h-9.89A31.16,31.16,0,0,1,267.45,113.4Zm30.19,55.26v12.91H284.73V168.66Z" transform="translate(-206.03 -54.01)"/></svg>