<svg width="16" height="16" viewBox="0 0 16 16" fill="none" xmlns="http://www.w3.org/2000/svg">
<path d="M12.8698 3.84457C12.8659 3.8375 12.8595 3.83196 12.8516 3.82894C11.9439 3.43851 10.9861 3.1601 10.002 3.00068C9.99302 2.99912 9.98378 3.00025 9.97556 3.0039C9.96734 3.00754 9.96055 3.01353 9.95617 3.021C9.82574 3.24294 9.70733 3.4709 9.60141 3.70403C8.54061 3.55307 7.46158 3.55307 6.40078 3.70403C6.29415 3.47031 6.17385 3.24229 6.04042 3.021C6.03584 3.01369 6.02903 3.00784 6.02085 3.00422C6.01268 3.0006 6.00354 2.99936 5.99461 3.00068C5.01041 3.15977 4.05247 3.4382 3.14489 3.82897C3.13712 3.83205 3.13056 3.83733 3.12612 3.84406C1.31114 6.38509 0.813948 8.86365 1.05785 11.3115C1.05854 11.3175 1.06051 11.3233 1.06364 11.3286C1.06676 11.3339 1.07099 11.3385 1.07607 11.3422C2.13292 12.0758 3.31501 12.6358 4.57191 12.9982C4.58077 13.0007 4.59022 13.0006 4.599 12.9979C4.60778 12.9952 4.61547 12.99 4.62103 12.9831C4.89099 12.6388 5.13019 12.2741 5.3362 11.8929C5.33903 11.8877 5.34065 11.8819 5.34094 11.8761C5.34124 11.8702 5.34021 11.8644 5.33791 11.8589C5.33562 11.8534 5.33212 11.8485 5.32765 11.8444C5.32317 11.8403 5.31782 11.8371 5.31194 11.8351C4.93474 11.6998 4.56956 11.5367 4.21984 11.3473C4.21349 11.3438 4.20815 11.3389 4.20431 11.333C4.20046 11.3271 4.19822 11.3204 4.19778 11.3135C4.19735 11.3067 4.19873 11.2998 4.20181 11.2935C4.20489 11.2872 4.20957 11.2817 4.21544 11.2776C4.28882 11.226 4.36225 11.1724 4.43232 11.1183C4.43854 11.1134 4.44608 11.1104 4.45407 11.1094C4.46206 11.1083 4.4702 11.1094 4.47756 11.1125C6.76873 12.0928 9.24924 12.0928 11.5133 11.1125C11.5207 11.1092 11.5289 11.108 11.537 11.1089C11.5451 11.1098 11.5528 11.1129 11.5591 11.1177C11.6292 11.1719 11.7026 11.226 11.7765 11.2776C11.7824 11.2817 11.7872 11.2871 11.7903 11.2934C11.7934 11.2996 11.7948 11.3065 11.7945 11.3134C11.7941 11.3203 11.7919 11.327 11.7881 11.3329C11.7843 11.3388 11.779 11.3438 11.7727 11.3473C11.4237 11.5383 11.0582 11.7013 10.6801 11.8346C10.6742 11.8367 10.6688 11.8399 10.6644 11.8441C10.66 11.8483 10.6565 11.8533 10.6542 11.8588C10.652 11.8643 10.651 11.8701 10.6514 11.876C10.6517 11.8819 10.6534 11.8877 10.6562 11.8929C10.8657 12.272 11.1046 12.6362 11.3709 12.9825C11.3763 12.9896 11.3839 12.995 11.3927 12.9978C11.4016 13.0006 11.4111 13.0007 11.42 12.9981C12.6791 12.6369 13.8633 12.0769 14.9215 11.3422C14.9266 11.3387 14.9309 11.3342 14.9341 11.329C14.9372 11.3238 14.9391 11.318 14.9397 11.312C15.2317 8.48204 14.4508 6.02379 12.8698 3.84457ZM5.67837 9.82102C4.98856 9.82102 4.42018 9.22755 4.42018 8.49871C4.42018 7.76987 4.97753 7.17636 5.67837 7.17636C6.38468 7.17636 6.94757 7.77503 6.93654 8.49867C6.93654 9.22755 6.37916 9.82102 5.67837 9.82102ZM10.3303 9.82102C9.6405 9.82102 9.07212 9.22755 9.07212 8.49871C9.07212 7.76987 9.62948 7.17636 10.3303 7.17636C11.0367 7.17636 11.5995 7.77503 11.5885 8.49867C11.5885 9.22755 11.0367 9.82102 10.3303 9.82102Z" fill="customColor"/>
</svg>
