<svg width="21" height="20" viewBox="0 0 21 20" fill="none" xmlns="http://www.w3.org/2000/svg">
<path fill-rule="evenodd" clip-rule="evenodd" d="M10.3079 0C7.85996 0.0012701 5.49228 0.868282 3.62825 2.446C1.76421 4.02373 0.525362 6.20928 0.133215 8.61186C-0.258932 11.0144 0.221191 13.4774 1.48774 15.5603C2.7543 17.6432 4.72468 19.2102 7.04658 19.9812C7.55883 20.0762 7.75177 19.7588 7.75177 19.4888C7.75177 19.2189 7.74152 18.4362 7.73811 17.5805C4.86952 18.2002 4.26337 16.37 4.26337 16.37C3.79551 15.1816 3.11935 14.8692 3.11935 14.8692C2.18364 14.2342 3.18936 14.2461 3.18936 14.2461C4.22581 14.3191 4.7705 15.3038 4.7705 15.3038C5.68913 16.8708 7.18318 16.4175 7.77055 16.1527C7.86276 15.4888 8.13084 15.0372 8.42623 14.7809C6.13478 14.5228 3.72721 13.6434 3.72721 9.7147C3.71301 8.69582 4.09326 7.7105 4.78928 6.9626C4.68341 6.70453 4.32996 5.6621 4.89001 4.24615C4.89001 4.24615 5.75572 3.97111 7.72617 5.29708C9.41629 4.83751 11.1995 4.83751 12.8896 5.29708C14.8584 3.97111 15.7223 4.24615 15.7223 4.24615C16.2841 5.6587 15.9307 6.70114 15.8248 6.9626C16.523 7.71062 16.9041 8.69766 16.8886 9.71809C16.8886 13.6552 14.4759 14.5228 12.181 14.7758C12.5498 15.095 12.8794 15.718 12.8794 16.6756C12.8794 18.0474 12.8674 19.151 12.8674 19.4888C12.8674 19.7622 13.0535 20.0813 13.576 19.9812C15.8982 19.2101 17.8688 17.6428 19.1353 15.5595C20.4018 13.4763 20.8817 11.013 20.4891 8.61018C20.0965 6.20738 18.8571 4.02181 16.9924 2.44436C15.1278 0.866906 12.7595 0.000465046 10.3113 0H10.3079Z" fill="customColor"/>
<path d="M4.95656 17.17C4.93436 17.2209 4.8524 17.2362 4.78581 17.2005C4.71922 17.1649 4.6697 17.0987 4.69361 17.046C4.71751 16.9934 4.79776 16.9798 4.86436 17.0155C4.93095 17.0511 4.98217 17.119 4.95656 17.17Z" fill="#212121"/>
<path d="M5.37538 17.6343C5.34002 17.652 5.29957 17.657 5.26094 17.6483C5.22232 17.6396 5.18793 17.6179 5.16366 17.5868C5.09706 17.5154 5.0834 17.417 5.13462 17.3728C5.18585 17.3287 5.27806 17.3491 5.34465 17.4204C5.41124 17.4917 5.42661 17.5902 5.37538 17.6343Z" fill="#212121"/>
<path d="M5.78082 18.2234C5.71764 18.2675 5.61006 18.2234 5.5503 18.1351C5.53378 18.1193 5.52064 18.1003 5.51166 18.0793C5.50268 18.0583 5.49805 18.0357 5.49805 18.0129C5.49805 17.9901 5.50268 17.9675 5.51166 17.9465C5.52064 17.9255 5.53378 17.9065 5.5503 17.8906C5.61348 17.8482 5.72106 17.8906 5.78082 17.9772C5.84058 18.0638 5.84229 18.1793 5.78082 18.2234Z" fill="#212121"/>
<path d="M6.33358 18.7942C6.27723 18.857 6.16283 18.84 6.06892 18.7551C5.97501 18.6702 5.95281 18.5548 6.00915 18.4937C6.0655 18.4325 6.1799 18.4495 6.27723 18.5327C6.37456 18.6159 6.39334 18.733 6.33358 18.7942Z" fill="#212121"/>
<path d="M7.10623 19.1259C7.08062 19.2057 6.96451 19.2414 6.8484 19.2074C6.73229 19.1735 6.65545 19.0784 6.67765 18.9969C6.69985 18.9154 6.81766 18.8781 6.93548 18.9154C7.0533 18.9528 7.12843 19.0427 7.10623 19.1259Z" fill="#212121"/>
<path d="M7.95005 19.1851C7.95005 19.2683 7.85443 19.3396 7.73149 19.3413C7.60855 19.343 7.50781 19.2751 7.50781 19.1919C7.50781 19.1087 7.60343 19.0374 7.72637 19.0357C7.84931 19.034 7.95005 19.1002 7.95005 19.1851Z" fill="#212121"/>
<path d="M8.73548 19.0537C8.75085 19.1369 8.66547 19.2235 8.54253 19.2439C8.41959 19.2643 8.31202 19.215 8.29665 19.1335C8.28129 19.052 8.37008 18.9637 8.4896 18.9417C8.60912 18.9196 8.72011 18.9705 8.73548 19.0537Z" fill="#212121"/>
</svg>
