<svg width="20" height="20" viewBox="0 0 20 20" fill="none" xmlns="http://www.w3.org/2000/svg">
<path d="M4.47689 20H0.330365V6.64702H4.47689V20ZM2.40139 4.82555C1.07547 4.82555 0 3.72732 0 2.40139C9.49038e-09 1.7645 0.253003 1.1537 0.703352 0.703352C1.1537 0.253003 1.7645 0 2.40139 0C3.03828 0 3.64909 0.253003 4.09943 0.703352C4.54978 1.1537 4.80279 1.7645 4.80279 2.40139C4.80279 3.72732 3.72687 4.82555 2.40139 4.82555ZM19.996 20H15.8584V13.4999C15.8584 11.9507 15.8271 9.96406 13.7025 9.96406C11.5467 9.96406 11.2163 11.6471 11.2163 13.3882V20H7.07427V6.64702H11.0511V8.46849H11.1092C11.6628 7.41936 13.015 6.31219 15.0325 6.31219C19.229 6.31219 20.0004 9.07565 20.0004 12.665V20H19.996Z" fill="customColor"/>
</svg>
