<svg width="28" height="16" viewBox="0 0 28 16" fill="none" xmlns="http://www.w3.org/2000/svg">
<path d="M7.89687 0C3.53557 0 0 3.55998 0 7.95104C0 12.3421 3.53583 15.9021 7.89687 15.9021C12.2579 15.9021 15.7937 12.3424 15.7937 7.95104C15.7937 3.55972 12.2584 0 7.89687 0ZM20.5078 0.465762C18.3271 0.465762 16.5596 3.81784 16.5596 7.95117C16.5596 12.0845 18.3274 15.4368 20.5081 15.4368C22.6888 15.4368 24.4566 12.0847 24.4566 7.95117H24.4562C24.4562 3.81666 22.6887 0.465762 20.5079 0.465762H20.5078ZM26.6112 1.24543C25.8444 1.24543 25.2228 4.24791 25.2228 7.95117C25.2228 11.6544 25.844 14.6569 26.6112 14.6569C27.3784 14.6569 28 11.6536 28 7.95104C28 4.24764 27.3781 1.24543 26.6113 1.24543H26.6112Z" fill="customColor"/>
</svg>
