<svg width="16" height="16" viewBox="0 0 16 16" fill="none" xmlns="http://www.w3.org/2000/svg">
<path d="M13.5609 4.99061C13.5698 5.12186 13.5698 5.25313 13.5698 5.38437C13.5698 9.38748 10.6828 14 5.40611 14C3.78046 14 2.27031 13.5031 1 12.6406C1.23097 12.6687 1.45303 12.6781 1.69289 12.6781C3.03425 12.6781 4.26904 12.2 5.25509 11.3844C3.99366 11.3563 2.93655 10.4844 2.57233 9.28437C2.75001 9.31248 2.92766 9.33124 3.11423 9.33124C3.37183 9.33124 3.62947 9.29372 3.8693 9.22813C2.55458 8.94686 1.56851 7.72812 1.56851 6.25624V6.21876C1.95047 6.44376 2.39467 6.58438 2.86545 6.60311C2.09261 6.05935 1.58628 5.13124 1.58628 4.08123C1.58628 3.51874 1.72839 3.00311 1.97713 2.55311C3.38958 4.39061 5.51269 5.59059 7.89339 5.72186C7.84898 5.49686 7.82232 5.26251 7.82232 5.02813C7.82232 3.35936 9.10152 2 10.6916 2C11.5178 2 12.2639 2.36562 12.7881 2.95625C13.4365 2.82501 14.0584 2.57187 14.6091 2.225C14.3959 2.92814 13.9429 3.51877 13.3477 3.89374C13.9251 3.82815 14.4848 3.65936 15 3.42501C14.6092 4.02499 14.1206 4.55934 13.5609 4.99061Z" fill="customColor"/>
</svg>
