<svg width="20" height="20" viewBox="0 0 20 20" fill="none" xmlns="http://www.w3.org/2000/svg">
<path d="M10 20C8.6 20 7.29167 19.7375 6.075 19.2125C4.85833 18.6875 3.8 17.975 2.9 17.075C2 16.175 1.29167 15.1125 0.775 13.8875C0.258333 12.6625 0 11.35 0 9.95C0 8.55 0.258333 7.24583 0.775 6.0375C1.29167 4.82917 2 3.775 2.9 2.875C3.8 1.975 4.85833 1.27083 6.075 0.7625C7.29167 0.254167 8.6 0 10 0C11.4 0 12.7083 0.254167 13.925 0.7625C15.1417 1.27083 16.2 1.975 17.1 2.875C18 3.775 18.7083 4.82917 19.225 6.0375C19.7417 7.24583 20 8.55 20 9.95C20 11.35 19.7417 12.6625 19.225 13.8875C18.7083 15.1125 18 16.175 17.1 17.075C16.2 17.975 15.1417 18.6875 13.925 19.2125C12.7083 19.7375 11.4 20 10 20ZM13.95 6.25H17.7C17.15 5.1 16.3958 4.14167 15.4375 3.375C14.4792 2.60833 13.375 2.06667 12.125 1.75C12.5417 2.36667 12.8958 3.03333 13.1875 3.75C13.4792 4.46667 13.7333 5.3 13.95 6.25ZM7.6 6.25H12.45C12.2667 5.36667 11.9583 4.5125 11.525 3.6875C11.0917 2.8625 10.5833 2.13333 10 1.5C9.46667 1.95 9.01667 2.54167 8.65 3.275C8.28333 4.00833 7.93333 5 7.6 6.25ZM1.8 12.225H5.775C5.725 11.775 5.69583 11.3708 5.6875 11.0125C5.67917 10.6542 5.675 10.3 5.675 9.95C5.675 9.53333 5.68333 9.1625 5.7 8.8375C5.71667 8.5125 5.75 8.15 5.8 7.75H1.8C1.68333 8.15 1.60417 8.50833 1.5625 8.825C1.52083 9.14167 1.5 9.51667 1.5 9.95C1.5 10.3833 1.52083 10.7708 1.5625 11.1125C1.60417 11.4542 1.68333 11.825 1.8 12.225ZM7.875 18.25C7.45833 17.6167 7.1 16.9333 6.8 16.2C6.5 15.4667 6.25 14.6417 6.05 13.725H2.3C2.93333 14.9083 3.66667 15.8375 4.5 16.5125C5.33333 17.1875 6.45833 17.7667 7.875 18.25ZM2.3 6.25H6.075C6.25833 5.35 6.49167 4.54583 6.775 3.8375C7.05833 3.12917 7.41667 2.44167 7.85 1.775C6.6 2.09167 5.50833 2.625 4.575 3.375C3.64167 4.125 2.88333 5.08333 2.3 6.25ZM10 18.55C10.5833 17.95 11.0708 17.2625 11.4625 16.4875C11.8542 15.7125 12.175 14.7917 12.425 13.725H7.6C7.83333 14.725 8.14583 15.625 8.5375 16.425C8.92917 17.225 9.41667 17.9333 10 18.55ZM7.325 12.225H12.7C12.7667 11.7083 12.8083 11.2875 12.825 10.9625C12.8417 10.6375 12.85 10.3 12.85 9.95C12.85 9.61667 12.8417 9.29583 12.825 8.9875C12.8083 8.67917 12.7667 8.26667 12.7 7.75H7.325C7.25833 8.26667 7.21667 8.67917 7.2 8.9875C7.18333 9.29583 7.175 9.61667 7.175 9.95C7.175 10.3 7.18333 10.6375 7.2 10.9625C7.21667 11.2875 7.25833 11.7083 7.325 12.225ZM12.15 18.225C13.35 17.8417 14.4292 17.2667 15.3875 16.5C16.3458 15.7333 17.1167 14.8083 17.7 13.725H13.975C13.7583 14.625 13.5042 15.4417 13.2125 16.175C12.9208 16.9083 12.5667 17.5917 12.15 18.225ZM14.2 12.225H18.2C18.3167 11.825 18.3958 11.4542 18.4375 11.1125C18.4792 10.7708 18.5 10.3833 18.5 9.95C18.5 9.51667 18.4792 9.14167 18.4375 8.825C18.3958 8.50833 18.3167 8.15 18.2 7.75H14.225C14.275 8.33333 14.3083 8.77917 14.325 9.0875C14.3417 9.39583 14.35 9.68333 14.35 9.95C14.35 10.3167 14.3375 10.6625 14.3125 10.9875C14.2875 11.3125 14.25 11.725 14.2 12.225Z" fill="customColor"/>
</svg>
